<svg width="45" height="62" viewBox="0 0 45 62" fill="none" xmlns="http://www.w3.org/2000/svg">
<path d="M26.8359 1.28906C28.5826 0.614583 30.551 0.72346 32.2266 1.61328L40.3623 5.93555L40.3701 5.93945L40.377 5.94336L40.7363 6.14941L40.752 6.15918C42.6469 7.33996 43.8132 9.42125 43.8135 11.6748V51.6709L43.8086 51.9199C43.7143 54.394 42.2199 56.6024 39.958 57.6094L39.7285 57.7061L31.5928 60.9629C30.1393 61.5445 28.5279 61.5804 27.0547 61.0713L27.0439 61.0674L26.7734 60.9668L26.7617 60.9629L18.627 57.7061C17.0235 57.064 15.7803 55.8284 15.1055 54.3135L14.7646 54.4512L14.7637 54.4521C13.3102 55.0338 11.6987 55.0695 10.2256 54.5605L10.2148 54.5566L9.94434 54.4561L9.93262 54.4521L5.49219 52.6738C3.02542 51.6863 1.40729 49.2958 1.40723 46.6387V29.3174C1.40737 26.9132 2.73528 24.7051 4.8584 23.5771L9.29883 21.2178L9.30469 21.2148L9.31152 21.2109L9.64551 21.0459L9.65332 21.043L9.66016 21.0391C11.2056 20.3371 12.9578 20.2738 14.542 20.8428V11.6748L14.5459 11.4502C14.626 9.13401 15.9368 7.02819 17.9932 5.93555L26.1279 1.61328L26.1338 1.61035L26.1406 1.60645L26.4746 1.44141L26.4824 1.43848L26.4893 1.43457L26.8359 1.28906Z" fill="#CAE6FF"/>
<path d="M26.8359 1.28906C28.5826 0.614583 30.551 0.72346 32.2266 1.61328L40.3623 5.93555L40.3701 5.93945L40.377 5.94336L40.7363 6.14941L40.752 6.15918C42.6469 7.33996 43.8132 9.42125 43.8135 11.6748V51.6709L43.8086 51.9199C43.7143 54.394 42.2199 56.6024 39.958 57.6094L39.7285 57.7061L31.5928 60.9629C30.1393 61.5445 28.5279 61.5804 27.0547 61.0713L27.0439 61.0674L26.7734 60.9668L26.7617 60.9629L18.627 57.7061C17.0235 57.064 15.7803 55.8284 15.1055 54.3135L14.7646 54.4512L14.7637 54.4521C13.3102 55.0338 11.6987 55.0695 10.2256 54.5605L10.2148 54.5566L9.94434 54.4561L9.93262 54.4521L5.49219 52.6738C3.02542 51.6863 1.40729 49.2958 1.40723 46.6387V29.3174C1.40737 26.9132 2.73528 24.7051 4.8584 23.5771L9.29883 21.2178L9.30469 21.2148L9.31152 21.2109L9.64551 21.0459L9.65332 21.043L9.66016 21.0391C11.2056 20.3371 12.9578 20.2738 14.542 20.8428V11.6748L14.5459 11.4502C14.626 9.13401 15.9368 7.02819 17.9932 5.93555L26.1279 1.61328L26.1338 1.61035L26.1406 1.60645L26.4746 1.44141L26.4824 1.43848L26.4893 1.43457L26.8359 1.28906Z" fill="url(#paint0_linear_2159_1270)" style="mix-blend-mode:multiply"/>
<path d="M26.8359 1.28906C28.5826 0.614583 30.551 0.72346 32.2266 1.61328L40.3623 5.93555L40.3701 5.93945L40.377 5.94336L40.7363 6.14941L40.752 6.15918C42.6469 7.33996 43.8132 9.42125 43.8135 11.6748V51.6709L43.8086 51.9199C43.7143 54.394 42.2199 56.6024 39.958 57.6094L39.7285 57.7061L31.5928 60.9629C30.1393 61.5445 28.5279 61.5804 27.0547 61.0713L27.0439 61.0674L26.7734 60.9668L26.7617 60.9629L18.627 57.7061C17.0235 57.064 15.7803 55.8284 15.1055 54.3135L14.7646 54.4512L14.7637 54.4521C13.3102 55.0338 11.6987 55.0695 10.2256 54.5605L10.2148 54.5566L9.94434 54.4561L9.93262 54.4521L5.49219 52.6738C3.02542 51.6863 1.40729 49.2958 1.40723 46.6387V29.3174C1.40737 26.9132 2.73528 24.7051 4.8584 23.5771L9.29883 21.2178L9.30469 21.2148L9.31152 21.2109L9.64551 21.0459L9.65332 21.043L9.66016 21.0391C11.2056 20.3371 12.9578 20.2738 14.542 20.8428V11.6748L14.5459 11.4502C14.626 9.13401 15.9368 7.02819 17.9932 5.93555L26.1279 1.61328L26.1338 1.61035L26.1406 1.60645L26.4746 1.44141L26.4824 1.43848L26.4893 1.43457L26.8359 1.28906Z" stroke="black"/>
<defs>
<linearGradient id="paint0_linear_2159_1270" x1="13.7028" y1="31.1408" x2="32.1334" y2="31.1408" gradientUnits="userSpaceOnUse">
<stop offset="0.7" stop-color="white"/>
<stop offset="1" stop-color="#CFCFCF"/>
</linearGradient>
</defs>
</svg>
