<svg width="35" height="37" viewBox="0 0 35 37" fill="none" xmlns="http://www.w3.org/2000/svg">
<path d="M1.73633 12.3018C1.73633 10.4523 2.75725 8.75387 4.39055 7.88618L15.3906 2.04243C16.8573 1.2632 18.6153 1.2632 20.0821 2.04243L31.0821 7.88618C32.7154 8.75387 33.7363 10.4523 33.7363 12.3018V30.7962C33.7363 33.5577 31.4978 35.7962 28.7363 35.7962H6.73633C3.9749 35.7962 1.73633 33.5577 1.73633 30.7962V12.3018Z" fill="url(#paint0_radial_2116_1726)"/>
<path d="M9.83105 21.348C9.83105 16.982 13.3704 13.4427 17.7363 13.4427C22.1023 13.4427 25.6416 16.982 25.6416 21.348C25.6416 25.714 22.1023 29.2533 17.7363 29.2533C13.3704 29.2533 9.83105 25.714 9.83105 21.348Z" fill="black"/>
<path d="M15.4619 1.4502C17.0096 0.747044 18.8038 0.79715 20.3164 1.60059L31.3164 7.44434L31.6455 7.63379C33.2494 8.63292 34.2363 10.3944 34.2363 12.3018V30.7959C34.2363 33.8335 31.7739 36.2959 28.7363 36.2959H6.73633C3.69876 36.2959 1.23633 33.8335 1.23633 30.7959V12.3018C1.23633 10.2673 2.35962 8.3988 4.15625 7.44434L15.1562 1.60059L15.4619 1.4502Z" stroke="black"/>
<defs>
<radialGradient id="paint0_radial_2116_1726" cx="0" cy="0" r="1" gradientUnits="userSpaceOnUse" gradientTransform="translate(17.7363 18.6271) rotate(90) scale(17.1691 16)">
<stop stop-color="#F0F0F0"/>
<stop offset="1" stop-color="#E7E7E7"/>
</radialGradient>
</defs>
</svg>
