<svg xmlns="http://www.w3.org/2000/svg" viewBox="0 0 100 100">
  <path fill="#FFFFFF" d="M50,0 C77.6142,0 100,22.3858 100,50 C100,77.6142 77.6142,100 50,100 C22.3858,100 0,77.6142 0,50 C0,22.3858 22.3858,0 50,0 Z M50,10 C27.9086,10 10,27.9086 10,50 C10,72.0914 27.9086,90 50,90 C72.0914,90 90,72.0914 90,50 C90,27.9086 72.0914,10 50,10 Z" opacity="0"/>
  <path fill="#FFFFFF" d="M30,20 L50,20 L70,40 L50,40 L30,20 Z M30,60 L50,60 L70,80 L50,80 L30,60 Z M70,20 L50,40 L70,60 L50,80 L30,60 L50,40 L30,20 L50,20 L70,20 Z"/>
</svg>
