<svg width="34" height="37" viewBox="0 0 34 37" fill="none" xmlns="http://www.w3.org/2000/svg">
<path d="M1 12.5055C1 10.656 2.02093 8.95763 3.65422 8.08994L14.6542 2.24619C16.121 1.46696 17.879 1.46697 19.3458 2.24619L30.3458 8.08994C31.9791 8.95763 33 10.656 33 12.5055V31C33 33.7614 30.7614 36 28 36H6C3.23858 36 1 33.7614 1 31V12.5055Z" fill="url(#paint0_radial_2082_1332)"/>
<path d="M12 19C12 18.4477 12.4477 18 13 18H21C21.5523 18 22 18.4477 22 19V27C22 27.5523 21.5523 28 21 28H13C12.4477 28 12 27.5523 12 27V19Z" fill="white"/>
<path d="M14.7256 1.6543C16.2734 0.951063 18.0674 1.00116 19.5801 1.80469L30.5801 7.64844L30.9092 7.83789C32.5129 8.83704 33.5 10.5986 33.5 12.5059V31C33.5 34.0376 31.0376 36.5 28 36.5H6C2.96243 36.5 0.5 34.0376 0.5 31V12.5059C0.5 10.4714 1.62329 8.6029 3.41992 7.64844L14.4199 1.80469L14.7256 1.6543Z" stroke="black"/>
<defs>
<radialGradient id="paint0_radial_2082_1332" cx="0" cy="0" r="1" gradientUnits="userSpaceOnUse" gradientTransform="translate(17 18.5) rotate(90) scale(17.5 16)">
<stop stop-color="#32CE73"/>
<stop offset="1" stop-color="#2C9959"/>
</radialGradient>
</defs>
</svg>
