<svg width="34" height="37" viewBox="0 0 34 37" fill="none" xmlns="http://www.w3.org/2000/svg">
<path d="M1 11.8594C1 10.0099 2.02093 8.31149 3.65422 7.4438L14.6542 1.60005C16.121 0.820818 17.879 0.820818 19.3458 1.60005L30.3458 7.4438C31.9791 8.31149 33 10.0099 33 11.8594V30.3539C33 33.1153 30.7614 35.3539 28 35.3539H6C3.23858 35.3539 1 33.1153 1 30.3539V11.8594Z" fill="url(#paint0_radial_2095_1254)"/>
<path d="M9.09473 20.9056C9.09473 16.5396 12.634 13.0003 17 13.0003C21.366 13.0003 24.9053 16.5396 24.9053 20.9056C24.9053 25.2716 21.366 28.8109 17 28.8109C12.634 28.8109 9.09473 25.2716 9.09473 20.9056Z" fill="white"/>
<path d="M14.7256 1.00781C16.2733 0.304661 18.0675 0.354767 19.5801 1.1582L30.5801 7.00195L30.9092 7.19141C32.513 8.19054 33.5 9.95204 33.5 11.8594V30.3535C33.5 33.3911 31.0376 35.8535 28 35.8535H6C2.96243 35.8535 0.5 33.3911 0.5 30.3535V11.8594C0.5 9.82495 1.62329 7.95641 3.41992 7.00195L14.4199 1.1582L14.7256 1.00781Z" stroke="black"/>
<defs>
<radialGradient id="paint0_radial_2095_1254" cx="0" cy="0" r="1" gradientUnits="userSpaceOnUse" gradientTransform="translate(17 18.1847) rotate(90) scale(17.1691 16)">
<stop stop-color="#505050"/>
<stop offset="1" stop-color="#353535"/>
</radialGradient>
</defs>
</svg>
