<svg width="44" height="62" viewBox="0 0 44 62" fill="none" xmlns="http://www.w3.org/2000/svg">
<path d="M26.1494 1.28906C27.8961 0.614583 29.8645 0.72346 31.54 1.61328L39.6758 5.93555L39.6836 5.93945L39.6904 5.94336L40.0498 6.14941L40.0654 6.15918C41.9604 7.33996 43.1267 9.42125 43.127 11.6748V51.6709L43.1221 51.9199C43.0278 54.394 41.5333 56.6024 39.2715 57.6094L39.042 57.7061L30.9062 60.9629C29.4528 61.5445 27.8414 61.5804 26.3682 61.0713L26.3574 61.0674L26.0869 60.9668L26.0752 60.9629L17.9404 57.7061C16.337 57.064 15.0938 55.8284 14.4189 54.3135L14.0781 54.4512L14.0771 54.4521C12.6237 55.0338 11.0121 55.0695 9.53906 54.5605L9.52832 54.5566L9.25781 54.4561L9.24609 54.4521L4.80566 52.6738C2.3389 51.6863 0.720762 49.2958 0.720703 46.6387V29.3174C0.720847 26.9132 2.04876 24.7051 4.17188 23.5771L8.6123 21.2178L8.61816 21.2148L8.625 21.2109L8.95898 21.0459L8.9668 21.043L8.97363 21.0391C10.5191 20.3371 12.2713 20.2738 13.8555 20.8428V11.6748L13.8594 11.4502C13.9395 9.13401 15.2502 7.02819 17.3066 5.93555L25.4414 1.61328L25.4473 1.61035L25.4541 1.60645L25.7881 1.44141L25.7959 1.43848L25.8027 1.43457L26.1494 1.28906Z" fill="#FFFDD0"/>
<path d="M26.1494 1.28906C27.8961 0.614583 29.8645 0.72346 31.54 1.61328L39.6758 5.93555L39.6836 5.93945L39.6904 5.94336L40.0498 6.14941L40.0654 6.15918C41.9604 7.33996 43.1267 9.42125 43.127 11.6748V51.6709L43.1221 51.9199C43.0278 54.394 41.5333 56.6024 39.2715 57.6094L39.042 57.7061L30.9062 60.9629C29.4528 61.5445 27.8414 61.5804 26.3682 61.0713L26.3574 61.0674L26.0869 60.9668L26.0752 60.9629L17.9404 57.7061C16.337 57.064 15.0938 55.8284 14.4189 54.3135L14.0781 54.4512L14.0771 54.4521C12.6237 55.0338 11.0121 55.0695 9.53906 54.5605L9.52832 54.5566L9.25781 54.4561L9.24609 54.4521L4.80566 52.6738C2.3389 51.6863 0.720762 49.2958 0.720703 46.6387V29.3174C0.720847 26.9132 2.04876 24.7051 4.17188 23.5771L8.6123 21.2178L8.61816 21.2148L8.625 21.2109L8.95898 21.0459L8.9668 21.043L8.97363 21.0391C10.5191 20.3371 12.2713 20.2738 13.8555 20.8428V11.6748L13.8594 11.4502C13.9395 9.13401 15.2502 7.02819 17.3066 5.93555L25.4414 1.61328L25.4473 1.61035L25.4541 1.60645L25.7881 1.44141L25.7959 1.43848L25.8027 1.43457L26.1494 1.28906Z" fill="url(#paint0_linear_2159_1269)" style="mix-blend-mode:multiply"/>
<path d="M26.1494 1.28906C27.8961 0.614583 29.8645 0.72346 31.54 1.61328L39.6758 5.93555L39.6836 5.93945L39.6904 5.94336L40.0498 6.14941L40.0654 6.15918C41.9604 7.33996 43.1267 9.42125 43.127 11.6748V51.6709L43.1221 51.9199C43.0278 54.394 41.5333 56.6024 39.2715 57.6094L39.042 57.7061L30.9062 60.9629C29.4528 61.5445 27.8414 61.5804 26.3682 61.0713L26.3574 61.0674L26.0869 60.9668L26.0752 60.9629L17.9404 57.7061C16.337 57.064 15.0938 55.8284 14.4189 54.3135L14.0781 54.4512L14.0771 54.4521C12.6237 55.0338 11.0121 55.0695 9.53906 54.5605L9.52832 54.5566L9.25781 54.4561L9.24609 54.4521L4.80566 52.6738C2.3389 51.6863 0.720762 49.2958 0.720703 46.6387V29.3174C0.720847 26.9132 2.04876 24.7051 4.17188 23.5771L8.6123 21.2178L8.61816 21.2148L8.625 21.2109L8.95898 21.0459L8.9668 21.043L8.97363 21.0391C10.5191 20.3371 12.2713 20.2738 13.8555 20.8428V11.6748L13.8594 11.4502C13.9395 9.13401 15.2502 7.02819 17.3066 5.93555L25.4414 1.61328L25.4473 1.61035L25.4541 1.60645L25.7881 1.44141L25.7959 1.43848L25.8027 1.43457L26.1494 1.28906Z" stroke="black"/>
<defs>
<linearGradient id="paint0_linear_2159_1269" x1="13.0163" y1="31.1408" x2="31.4468" y2="31.1408" gradientUnits="userSpaceOnUse">
<stop offset="0.7" stop-color="white"/>
<stop offset="1" stop-color="#CFCFCF"/>
</linearGradient>
</defs>
</svg>
